<svg width="153" height="166" viewBox="0 0 153 166" fill="none" xmlns="http://www.w3.org/2000/svg">
<path d="M109.653 73.237L76.4326 82.1384L52.1134 57.8192L28.3623 34.0681L60.8069 25.3746L94.0276 16.4732L118.347 40.7924L142.098 64.5435L109.653 73.237Z" fill="#FCFCFC" stroke="#EBEBEB" strokeWidth="1.39178"/>
<path d="M51.1269 58.8035L75.4461 83.1228L66.5447 116.343L57.8512 148.788L34.1001 125.037L9.78089 100.718L18.6824 67.497L27.3758 35.0525L51.1269 58.8035Z" fill="#FCFCFC" stroke="#EBEBEB" strokeWidth="1.39178"/>
<path d="M27.0156 33.7081L9.00473 100.926L57.8064 150.024" stroke="#EBEBEB" strokeWidth="1.39178" stroke-linecap="square" stroke-linejoin="round"/>
<path d="M109.612 74.474L142.056 65.7805L133.363 98.2251L124.461 131.446L91.2405 140.347L58.7959 149.041L67.4894 116.596L76.3909 83.3755L109.612 74.474Z" fill="#FAFAFA" stroke="#EBEBEB" strokeWidth="1.39178"/>
<path d="M75.8227 82.8073L57.8118 150.025L124.624 131.905L142.635 64.6879" stroke="#EBEBEB" strokeWidth="1.39178" stroke-linecap="square" stroke-linejoin="round"/>
<path d="M75.8201 82.8063L143.305 64.8669L94.323 16.441L27.0184 33.7081L75.8201 82.8063Z" fill="#FCFCFC" stroke="#EBEBEB" strokeWidth="1.39178" stroke-linecap="square" stroke-linejoin="round"/>
</svg>
